<?xml version="1.0" encoding="utf-8"?>
<!-- Generator: Adobe Illustrator 26.0.0, SVG Export Plug-In . SVG Version: 6.00 Build 0)  -->
<svg version="1.1" id="Layer_1" xmlns="http://www.w3.org/2000/svg" xmlns:xlink="http://www.w3.org/1999/xlink" x="0px" y="0px"
	 viewBox="0 0 200 200" style="enable-background:new 0 0 200 200;" xml:space="preserve">
<g>
	<g>
		<path d="M118.58,97.86c-1.49-1.21-3.09-2.09-4.77-2.63c-0.25-0.08-0.44-0.26-0.54-0.5c-0.52-1.3-1.11-2.42-1.75-3.39
			c-0.69-1.06-1.53-1.99-2.5-2.78c-0.97-0.78-2.1-1.46-3.38-2.04c-0.02,0-0.03-0.01-0.04-0.01c-0.59-0.26-0.65-0.95-0.32-1.34h-0.59
			c-0.41,0-0.8-0.05-1.17-0.14c-0.03,0.03-0.06,0.05-0.09,0.08h-0.01c-0.03,0.04-0.07,0.09-0.1,0.13c-0.22,0.34-0.2,0.82,0.14,1.12
			c0.06,0.06,0.14,0.11,0.23,0.15c0.01,0,0.02,0.01,0.03,0.01c1.29,0.58,2.42,1.26,3.39,2.04c0.97,0.79,1.8,1.72,2.5,2.78
			c0.64,0.97,1.23,2.09,1.75,3.39c0.1,0.24,0.29,0.42,0.54,0.5c1.68,0.54,3.27,1.42,4.77,2.63c1.04,0.85,2.03,1.84,2.96,2.99
			c0.5,0.6,1.47,0.29,1.52-0.47C120.34,99.43,119.48,98.6,118.58,97.86z M106.73,115.25c-4.5-1.07-6.75-3.57-6.75-7.52
			c0-2.86,0.97-5.04,2.91-6.57c1.68-1.32,3.87-2.06,6.58-2.24c-0.19-0.03-0.38-0.05-0.57-0.05c-3.34,0-5.98,0.76-7.92,2.29
			c-1.94,1.53-2.91,3.71-2.91,6.57c0,3.95,2.25,6.45,6.74,7.52c0.57,0.14,0.85,0.78,0.55,1.28l-1.42,2.34
			c0.48,0.1,0.97,0.14,1.46,0.14h0.37l1.5-2.48C107.58,116.03,107.29,115.39,106.73,115.25z M81.23,79.89v-4.48
			c0-0.47-0.39-0.85-0.86-0.85h-1.91c0.47,0,0.86,0.38,0.86,0.85v4.48c0,0.47,0.38,0.85,0.85,0.85h1.91
			C81.61,80.74,81.23,80.36,81.23,79.89z M80.17,84.88c-0.47,0-0.85,0.38-0.85,0.86v67.4c0,0.48-0.39,0.86-0.86,0.86h1.91
			c0.47,0,0.86-0.38,0.86-0.86v-67.4c0-0.48,0.38-0.86,0.85-0.86H80.17z M73.52,82.39c-0.42-0.34-0.82-0.64-1.22-0.89
			c-0.33-0.22-0.69-0.43-1.07-0.65c-0.12-0.07-0.27-0.11-0.42-0.11H68.9c0.15,0,0.29,0.04,0.42,0.11c0.38,0.22,0.73,0.43,1.07,0.65
			c0.4,0.25,0.8,0.55,1.22,0.89c0.42,0.34,0.87,0.74,1.34,1.19c0.03,0.03,0.07,0.06,0.1,0.1c0.5,0.49,1.32,0.21,1.44-0.45
			C74.15,82.92,73.83,82.63,73.52,82.39z M62.46,84.88c-0.47,0-0.85,0.38-0.85,0.86v39.12c0,0.48-0.39,0.86-0.86,0.86h1.91
			c0.47,0,0.86-0.38,0.86-0.86V85.74c0-0.48,0.38-0.86,0.85-0.86H62.46z M53.18,103.57c-0.16-0.21-0.22-0.47-0.16-0.73
			c0.05-0.23,0.09-0.47,0.14-0.7c0.07-0.37,0.1-0.73,0.1-1.08c0-1.56-0.41-3.12-1.24-4.7c-0.82-1.57-1.9-2.99-3.25-4.25
			c-1.34-1.27-2.88-2.29-4.62-3.09c-1.74-0.8-3.52-1.2-5.34-1.2c-0.35,0-0.69,0.02-1.02,0.04c1.52,0.11,3,0.49,4.45,1.16
			c1.74,0.8,3.28,1.82,4.62,3.09c1.35,1.26,2.43,2.68,3.25,4.25c0.83,1.58,1.24,3.14,1.24,4.7c0,0.35-0.03,0.71-0.1,1.08
			c-0.05,0.23-0.1,0.47-0.14,0.7c-0.06,0.26,0,0.52,0.16,0.73l4.04,5.08c0.49,0.61,1.48,0.29,1.52-0.49L53.18,103.57z M49.78,109.01
			c-0.32-0.43-0.95-0.46-1.31-0.06c-2.89,3.16-6.09,4.87-9.63,5.09c0.37,0.01,0.74,0.02,1.12,0.02c3.7,0,7.05-1.58,10.07-4.73
			L49.78,109.01z M34.2,108.91c-1.65-0.69-3.17-1.61-4.57-2.78c-1.4-1.16-2.67-2.52-3.79-4.05c-1.13-1.53-2.14-3.15-3.05-4.84
			c-0.9-1.69-1.67-3.41-2.29-5.18c-0.51-1.45-0.95-2.85-1.32-4.19c-0.12-0.46-0.59-0.73-1.05-0.6l-1.02,0.28
			c0.07,0.09,0.13,0.2,0.16,0.32c0.37,1.34,0.81,2.74,1.32,4.19c0.62,1.77,1.39,3.49,2.29,5.18s1.92,3.31,3.05,4.84
			c1.12,1.53,2.39,2.89,3.79,4.05c1.4,1.17,2.92,2.09,4.57,2.78c1.65,0.7,3.43,1.04,5.35,1.04c0.3,0,0.59-0.01,0.88-0.04
			C36.99,109.82,35.55,109.48,34.2,108.91z M36.89,91.96c-1.21,0-2.27,0.39-3.14,1.18c-0.76,0.68-1.39,1.67-1.87,2.98
			c-0.05,0.13-0.12,0.23-0.21,0.32l1.16,0.22c0.41,0.08,0.81-0.14,0.96-0.54c0.49-1.31,1.11-2.3,1.87-2.98
			c0.67-0.59,1.43-0.97,2.29-1.11C37.6,91.99,37.25,91.96,36.89,91.96z M145.51,84.88c-0.47,0-0.86,0.38-0.86,0.86v39.21
			c0,0.47-0.38,0.86-0.85,0.86h1.91c0.47,0,0.86-0.39,0.86-0.86V85.74c0-0.48,0.38-0.86,0.85-0.86H145.51z M146.57,79.89V47.33
			c0-0.47-0.39-0.85-0.86-0.85h-1.91c0.47,0,0.85,0.38,0.85,0.85v32.56c0,0.47,0.39,0.85,0.86,0.85h1.91
			C146.95,80.74,146.57,80.36,146.57,79.89z M177.81,106.93c-1.08-0.8-2.24-1.58-3.48-2.33c-1.25-0.75-2.48-1.42-3.73-2.03
			c-1.24-0.6-2.42-1.09-3.55-1.47c-0.34-0.12-0.67-0.22-0.97-0.3c-0.73-0.2-0.85-1.19-0.19-1.56c0.09-0.06,0.18-0.11,0.28-0.16
			c0.9-0.51,1.91-1.03,3.04-1.58c1.13-0.54,2.33-1.09,3.59-1.65c1.27-0.55,2.49-1.05,3.68-1.51c1.18-0.46,2.29-0.86,3.33-1.2
			c0.15-0.04,0.3-0.09,0.45-0.14c-0.2-0.26-0.55-0.4-0.9-0.3c-0.44,0.12-0.92,0.27-1.46,0.44c-1.04,0.34-2.15,0.74-3.34,1.2
			c-1.18,0.46-2.4,0.96-3.67,1.51c-1.26,0.56-2.46,1.11-3.59,1.65c-1.13,0.55-2.14,1.07-3.04,1.58c-0.1,0.05-0.19,0.1-0.28,0.16
			c-0.66,0.37-0.55,1.36,0.19,1.56c0.3,0.08,0.63,0.18,0.97,0.3c1.12,0.38,2.31,0.87,3.55,1.47c1.24,0.61,2.48,1.28,3.72,2.03
			c1.25,0.75,2.41,1.53,3.49,2.33c1.09,0.81,2.03,1.61,2.85,2.39c0.08,0.08,0.15,0.16,0.23,0.23c0.5,0.51,1.33,0.21,1.44-0.45
			C179.66,108.39,178.8,107.66,177.81,106.93z M186.1,84.88c-0.47,0-0.86,0.38-0.86,0.86v39.12c0,0.48-0.38,0.86-0.85,0.86h1.91
			c0.47,0,0.86-0.38,0.86-0.86V85.74c0-0.48,0.38-0.86,0.85-0.86H186.1z M193.11,80.74h-1.92c0.48,0,0.86,0.38,0.86,0.86v2.43
			c0,0.47-0.38,0.85-0.86,0.85h1.92c0.47,0,0.85-0.38,0.85-0.85V81.6C193.96,81.12,193.58,80.74,193.11,80.74z"/>
		<path d="M173.39,114.81c-0.98-0.83-2.23-1.25-3.77-1.25c-0.34,0-0.66,0.02-0.96,0.06c1.11,0.14,2.05,0.54,2.82,1.19
			c0.99,0.84,1.48,1.93,1.48,3.27c0,1.34-0.49,2.44-1.48,3.28c-0.77,0.67-1.71,1.07-2.82,1.21c0.3,0.04,0.62,0.06,0.96,0.06
			c1.54,0,2.79-0.42,3.77-1.27c0.99-0.84,1.48-1.94,1.48-3.28C174.87,116.74,174.38,115.65,173.39,114.81z"/>
	</g>
	<g>
		<path style="fill:none;" d="M117.84,81.22c-0.19-0.85-0.96-1.45-2.02-1.46c-4.21-0.02-8.41-0.02-12.62,0
			c-0.15,0-0.3,0.01-0.43,0.04c-0.08,0.14-0.14,0.3-0.18,0.47c-0.02,0.08-0.03,0.16-0.04,0.24c0,0.06-0.01,0.12-0.01,0.18
			c0,0.5,0.18,0.93,0.49,1.26c0.38,0.4,0.96,0.63,1.66,0.63c2.07,0.01,4.15,0,6.23,0c2.07,0,4.15,0,6.23,0
			c0.18,0,0.36-0.02,0.52-0.05c0.14-0.25,0.22-0.54,0.22-0.86C117.89,81.51,117.87,81.36,117.84,81.22z"/>
		<path style="fill:none;" d="M123.73,77.85c0.02-0.11,0.03-0.23,0.03-0.38c-0.01-3.31,0-6.61-0.01-9.92c0-0.08,0-0.15-0.01-0.24
			c-0.53,0.49-1.02,0.96-1.53,1.41c-0.37,0.33-0.64,0.48-0.92,0.45c-0.01,0.01-0.02,0.02-0.03,0.03c-0.67,0.6-0.99,0.6-1.67,0.01
			c-0.39-0.34-0.77-0.68-1.18-1.04c0,2.98,0,5.84,0.02,8.7c0,0.2,0.28,0.47,0.49,0.58c1.17,0.62,1.88,1.53,2.05,2.81
			c0.01,0.05,0.01,0.1,0.02,0.14c0.01,0.07,0.01,0.14,0.01,0.22c0.3-1.04,1.03-1.84,2.15-2.26C123.31,78.18,123.5,78,123.73,77.85
			L123.73,77.85z"/>
		<path style="fill:none;" d="M130.43,63.1c-1.08-0.01-2.16-0.03-3.23,0c-0.11,0-0.22,0.01-0.32,0.04c-0.2,0.15-0.4,0.33-0.6,0.51
			c2,0.09,3.85,0.17,5.7,0.25C131.78,63.39,131.26,63.11,130.43,63.1z"/>
		<path style="fill:none;" d="M123.09,64.23c-0.11-0.68,0.27-1.05,0.83-1.4c0.72-0.45,1.45-0.95,2.02-1.57
			c1.71-1.87,2.33-4.08,1.84-6.62c-3.26,0.66-6.31,0.14-9.24-1.11c-1.48-0.63-2.88-0.62-4.26-0.13c-0.04,0.07-0.07,0.15-0.08,0.22
			c-0.75,3.31,0.9,6.8,3.99,8.33c0.8,0.4,1.13,0.88,1.05,1.74c-0.03,0.31,0.05,0.74,0.25,0.94c0.67,0.67,1.4,1.29,2.14,1.94
			c0.23-0.22,0.47-0.43,0.72-0.63C122.91,65.48,123.22,64.97,123.09,64.23z"/>
		<path style="fill:none;" d="M106.63,71.72c-0.75,1.72-1.28,3.54-1.92,5.37c0.83,0,1.65,0.13,2.37,0.09h0
			c0.17-0.46,0.3-1.04,0.48-1.48c0.21-0.49,0.5-0.87,1.07-0.71c0.12-0.23,0.27-0.41,0.48-0.48c0.22-0.4,0.52-0.65,1.05-0.45
			c0.64,0.24,0.59,0.76,0.4,1.27c-0.21,0.57-0.43,1.14-0.67,1.75h1.33V66.42c-0.56-0.04-1.07,0.02-1.53,0.17
			c-0.1,0.06-0.19,0.13-0.27,0.21c-0.12,0.14-0.23,0.29-0.34,0.44C108.14,68.65,107.31,70.17,106.63,71.72z"/>
		<path style="fill:none;" d="M114.4,71.27v5.81h0.8c0-0.07,0-0.15,0-0.23c0-2.96,0-5.93,0-8.89c0-1.4,0.14-1.49-0.81-1.5
			C114.41,68.05,114.4,69.67,114.4,71.27z"/>
		<path style="fill:none;" d="M110.66,63.75h4.11c-0.39-0.27-0.78-0.5-1.21-0.6c-0.93-0.22-1.95-0.11-2.93-0.05
			C110.59,63.31,110.6,63.53,110.66,63.75z"/>
		<path style="fill:none;" d="M120.54,50.88c1.59,0.54,3.24,0.98,4.89,1.29c0.65,0.12,1.31,0.14,1.95,0.07
			c-0.48-0.32-0.95-0.63-1.32-1.02c-2.04-2.15-4.51-2.9-7.41-2.37c-0.48,0.09-0.95,0.22-1.38,0.39c-0.3,0.19-0.59,0.41-0.86,0.65
			c-0.18,0.19-0.34,0.39-0.5,0.61C117.6,50.13,119.06,50.37,120.54,50.88z"/>
		<path style="fill:none;" d="M126.94,75.11c0,1.67,0,2.07,0.97,2.04v-0.13c0-3.06,0-6.13,0-9.19c0-1.42,0.19-1.35-0.99-1.38v0.03
			C126.96,69.36,126.94,72.24,126.94,75.11z"/>
		<path style="fill:none;" d="M132.13,77.1c-0.12-0.32-0.24-0.64-0.36-0.95c-0.2-0.53-0.1-0.97,0.46-1.18
			c0.17-0.07,0.32-0.08,0.46-0.04c0.07-0.18,0.22-0.32,0.45-0.42c0.06-0.22,0.23-0.39,0.52-0.5c0.54-0.21,0.88,0.11,1.08,0.57
			c0.29,0.69,0.54,1.4,0.84,2.08c0.08,0.18,0.29,0.43,0.45,0.44c0.21,0.01,0.42,0.02,0.63,0.02c-1.14-2.97-2.22-5.86-3.39-8.71
			c-0.32-0.8-1.2-1.42-2.12-1.68V77.1H132.13z"/>
		<path style="fill:none;" d="M123.93,80.72c0.01,1.1,0.88,1.85,2.18,1.86c2.07,0,4.15,0,6.23,0c1.78,0,3.57,0,5.35,0h0.79
			c0.21,0,0.4-0.02,0.58-0.05c0.13-0.23,0.2-0.51,0.21-0.81c0.02-0.67-0.3-1.25-0.85-1.6c-0.36-0.23-0.81-0.36-1.33-0.36
			c-4.15-0.02-8.3-0.02-12.45,0c-0.17,0-0.32,0.01-0.48,0.04c-0.08,0.14-0.13,0.3-0.17,0.46C123.94,80.41,123.93,80.56,123.93,80.72
			z"/>
		<path style="fill:#FFFFFF;" d="M132.69,74.93c-0.13-0.03-0.29-0.02-0.46,0.04c-0.56,0.21-0.66,0.65-0.46,1.18
			c0.12,0.32,0.24,0.63,0.36,0.95h1.14c-0.19-0.49-0.37-0.96-0.54-1.43C132.62,75.39,132.6,75.14,132.69,74.93z"/>
		<path style="fill:#FFFFFF;" d="M137.8,77.13c-0.39,0.01-0.77,0.01-1.14,0c-1.14-2.97-2.22-5.85-3.39-8.71
			c-0.33-0.8-1.21-1.42-2.13-1.68v-0.63c1.19,0,2.64,0.75,3.08,1.83C135.46,70.95,136.59,73.99,137.8,77.13z"/>
		<path style="fill:#FFFFFF;" d="M139.37,79.64c-0.36-0.23-0.81-0.36-1.33-0.36c-4.15-0.02-8.3-0.02-12.45,0
			c-0.54,0-1,0.14-1.36,0.39c-0.02,0.04-0.05,0.09-0.08,0.13c0.15-0.03,0.31-0.04,0.48-0.04c4.15-0.02,8.3-0.02,12.45,0
			c0.52,0,0.97,0.13,1.33,0.36c0.55,0.35,0.87,0.92,0.85,1.6c-0.01,0.3-0.08,0.57-0.21,0.81c0.3-0.05,0.57-0.15,0.79-0.29
			c0.03-0.02,0.06-0.03,0.08-0.06c0.18-0.26,0.28-0.58,0.29-0.94C140.24,80.57,139.92,79.99,139.37,79.64z"/>
		<path style="fill:#FFFFFF;" d="M111.39,62.64c-0.25,0.01-0.48,0.08-0.66,0.18v0c-0.05,0.09-0.08,0.18-0.11,0.28
			c0.98-0.06,2.01-0.17,2.93,0.05c0.43,0.1,0.83,0.33,1.21,0.6h1.64c-0.62-0.43-1.22-0.92-1.9-1.08
			C113.53,62.44,112.44,62.58,111.39,62.64z"/>
		<path style="fill:#FFFFFF;" d="M119.58,69.22c0.68,0.59,1,0.59,1.67-0.01c0.01-0.01,0.02-0.02,0.03-0.03
			c-0.22-0.03-0.45-0.18-0.75-0.44c-0.68-0.6-1.36-1.2-2.14-1.89v1.33C118.8,68.53,119.19,68.88,119.58,69.22z"/>
		<path style="fill:#FFFFFF;" d="M131.38,62.62c-1.08-0.01-2.16-0.03-3.23,0c-0.51,0.02-0.9,0.22-1.27,0.52
			c0.1-0.02,0.21-0.03,0.32-0.04c1.08-0.03,2.16-0.01,3.23,0c0.84,0.01,1.35,0.29,1.55,0.8c0.35,0.01,0.7,0.03,1.06,0.04
			C133.01,63.1,132.47,62.64,131.38,62.62z"/>
		<path style="fill:#FFFFFF;" d="M109.69,66.59c0.46-0.15,0.97-0.21,1.53-0.17v10.67h0.96V65.94
			C111.19,65.87,110.37,66.11,109.69,66.59z"/>
		<path style="fill:#FFFFFF;" d="M103.21,79.76c4.21-0.02,8.41-0.02,12.62,0c1.06,0,1.83,0.61,2.02,1.46
			c0.03,0.14,0.05,0.29,0.05,0.44c0,0.32-0.08,0.61-0.22,0.86c0.34-0.06,0.64-0.18,0.88-0.35c0.19-0.28,0.29-0.61,0.29-0.99
			c0-0.15-0.02-0.3-0.05-0.44c-0.19-0.85-0.96-1.45-2.02-1.46c-4.21-0.02-8.41-0.02-12.62,0c-0.52,0-0.96,0.14-1.3,0.39
			c-0.03,0.04-0.06,0.09-0.08,0.13C102.91,79.77,103.06,79.76,103.21,79.76z"/>
		<path style="fill:#FFFFFF;" d="M124.7,67.08c0-0.17-0.03-0.33-0.06-0.61c-0.32,0.29-0.62,0.57-0.91,0.85
			c0.01,0.09,0.01,0.16,0.01,0.24c0,3.31,0,6.61,0.01,9.92c0,0.14,0,0.27-0.03,0.38c0.27-0.19,0.57-0.34,0.91-0.46
			c0.01,0,0.03-0.01,0.04-0.01c0.03-0.11,0.03-0.24,0.03-0.38C124.7,73.68,124.71,70.38,124.7,67.08z"/>
		<path style="fill:#FFFFFF;" d="M113.2,60.45c-0.99-1.75-1.37-3.5-1.3-5.39c0.09-2.28,1.23-4.48,2.94-6.08
			c0.32-0.35,0.67-0.67,1.04-0.97c-2.76,1.5-4.82,4.44-4.94,7.53c-0.06,1.72,0.25,3.32,1.05,4.91
			C112.37,60.44,112.77,60.45,113.2,60.45z"/>
		<path style="fill:#FFFFFF;" d="M126.94,60.72c-0.48,0.44-1.04,0.81-1.59,1.16c-0.3,0.18-0.55,0.37-0.69,0.62
			c-0.44,0.31-0.72,0.66-0.62,1.25c0.09,0.51-0.02,0.9-0.29,1.25c0,0.01,0,0.01,0,0.01c-0.66,0.53-1.25,1.14-1.92,1.75
			c-0.07-0.06-0.14-0.13-0.21-0.19c0.23-0.22,0.47-0.43,0.72-0.63c0.57-0.46,0.88-0.97,0.75-1.71c-0.12-0.69,0.27-1.05,0.82-1.4
			c0.73-0.45,1.45-0.95,2.02-1.57c1.71-1.87,2.33-4.08,1.84-6.62c-3.26,0.67-6.31,0.14-9.24-1.11c-1.48-0.63-2.88-0.61-4.26-0.13
			c0.01-0.04,0.03-0.07,0.04-0.1c1.68-0.83,3.37-1.02,5.17-0.25c2.93,1.25,5.98,1.78,9.24,1.11
			C129.21,56.68,128.61,58.86,126.94,60.72z"/>
		<path style="fill:#FFFFFF;" d="M123.14,78.37c-0.03,0.03-0.07,0.06-0.09,0.1c-0.01,0.01-0.01,0.02-0.02,0.03
			c-0.68,0.55-1.09,1.32-1.21,2.24c-0.02,0.19-0.03,0.38-0.03,0.58v0.2h-0.81c0-0.31,0.02-0.6,0.01-0.89
			C121.29,79.59,122.02,78.78,123.14,78.37z"/>
		<path style="fill:#FFFFFF;" d="M116.15,67.47c0-1.7,0.22-1.46-1.59-1.5c-0.06,0-0.11,0-0.17,0.01c-0.01,0.05-0.01,0.1-0.01,0.16
			c0,0.11,0,0.21,0,0.31c0.96,0.01,0.81,0.1,0.81,1.5c0.01,2.96,0,5.93,0,8.89c0,0.09,0,0.16,0,0.23h0.19c0.32,0,0.57,0,0.75-0.02
			c0.02-0.17,0.02-0.39,0.02-0.69C116.16,73.4,116.16,70.43,116.15,67.47z"/>
		<path style="fill:#FFFFFF;" d="M128.87,67.35c0-1.58,0.23-1.31-1.43-1.39c-0.19-0.01-0.34,0-0.47,0.03
			c-0.03,0.13-0.04,0.28-0.04,0.46c1.18,0.03,0.98-0.04,0.99,1.38c0.01,3.06,0,6.13,0,9.19v0.13c0.25,0,0.56-0.04,0.96-0.09v-0.53
			C128.88,73.48,128.88,70.42,128.87,67.35z"/>
		<path style="fill:#FFFFFF;" d="M119.61,48.37c-0.85,0.16-1.63,0.43-2.34,0.87c0.43-0.18,0.9-0.3,1.38-0.39
			c2.9-0.53,5.37,0.22,7.41,2.37c0.37,0.39,0.84,0.69,1.32,1.02c0.43-0.05,0.85-0.14,1.27-0.27c-0.59-0.41-1.19-0.75-1.63-1.22
			C124.98,48.59,122.51,47.84,119.61,48.37z"/>
		<path style="fill:#FFFFFF;" d="M108.63,74.99c-0.56-0.17-0.86,0.22-1.07,0.71c-0.19,0.44-0.31,1.01-0.48,1.48
			c0.29-0.02,0.56-0.07,0.81-0.17c0.26-0.49,0.4-1.24,0.63-1.79C108.56,75.14,108.59,75.07,108.63,74.99z"/>
		<path style="fill:#270104;" d="M112.18,77.09v0.47h-2.77c0.24-0.61,0.46-1.17,0.68-1.74c0.19-0.52,0.23-1.04-0.41-1.28
			c-0.23-0.08-0.41-0.09-0.57-0.02c0.22-0.4,0.52-0.65,1.05-0.45c0.64,0.24,0.59,0.75,0.4,1.27c-0.21,0.57-0.43,1.13-0.67,1.75
			H112.18z"/>
		<path style="fill:#270104;" d="M133.46,77.58h-2.79V66.16c0.15-0.03,0.31-0.05,0.47-0.05V77.1h2.13
			C133.33,77.26,133.4,77.42,133.46,77.58z"/>
		<path style="fill:#270104;" d="M118.56,82.17c-0.26,0.4-0.7,0.68-1.24,0.81c-0.2,0.05-0.42,0.07-0.64,0.07
			c-2.07,0.01-4.15,0.01-6.23,0.01c-2.07,0-4.15,0-6.22-0.01c-0.71,0-1.28-0.23-1.66-0.63c-0.32-0.33-0.49-0.76-0.49-1.26
			c0-0.06,0-0.12,0.01-0.18c0-0.08,0.01-0.16,0.03-0.24c0.09-0.36,0.27-0.68,0.54-0.92c0.06-0.06,0.13-0.11,0.2-0.15
			c-0.03,0.04-0.06,0.08-0.08,0.13c-0.08,0.14-0.14,0.3-0.18,0.46c-0.02,0.08-0.03,0.16-0.04,0.24c0,0.06-0.01,0.12-0.01,0.18
			c0,0.51,0.18,0.94,0.5,1.26c0.37,0.4,0.95,0.63,1.65,0.63c2.08,0.01,4.16,0.01,6.23,0.01c2.08,0,4.15,0,6.23-0.01
			c0.18,0,0.36-0.02,0.52-0.05C118.02,82.46,118.31,82.34,118.56,82.17z"/>
		<path style="fill:#270104;" d="M128.88,77.07v0.32c-0.14,0.1-0.16,0.12-0.19,0.12c-0.29,0.04-0.55,0.07-0.77,0.09
			c-1.45,0.15-1.45-0.1-1.45-2.01c0-2.88,0.02-5.75-0.02-8.63c-0.01-0.21,0.01-0.38,0.05-0.52c0.06-0.24,0.21-0.39,0.47-0.45
			c-0.04,0.13-0.04,0.28-0.04,0.46v0.03c0.03,2.88,0.01,5.76,0.01,8.63c0,1.67,0,2.07,0.98,2.04
			C128.17,77.15,128.48,77.12,128.88,77.07z"/>
		<path style="fill:#270104;" d="M128.93,52.16c-0.35,0.15-0.72,0.28-1.09,0.38c-0.94,0.24-1.92,0.28-2.88,0.1
			c-1.66-0.3-3.31-0.74-4.9-1.28c-1.48-0.51-2.94-0.75-4.63-0.38c0.31-0.42,0.63-0.78,0.98-1.09c-0.17,0.19-0.34,0.39-0.5,0.61
			c1.69-0.37,3.15-0.13,4.63,0.38c1.59,0.54,3.24,0.98,4.89,1.29c0.65,0.11,1.31,0.13,1.96,0.06c0.43-0.05,0.85-0.14,1.27-0.27
			C128.75,52.03,128.84,52.09,128.93,52.16z"/>
		<path style="fill:#270104;" d="M113.49,60.93c-0.46,0-0.86,0-1.24-0.01c-0.36,0-0.7,0-1.03,0.02c-0.65,0.03-1.24,0.24-1.71,0.6
			c-0.02,0.01-0.04,0.02-0.05,0.04c0-0.01,0.01-0.02,0.02-0.03c0.52-0.64,1.3-1.05,2.22-1.09h0.29c0.38-0.02,0.78-0.01,1.21-0.01
			C113.29,60.61,113.39,60.77,113.49,60.93z"/>
		<path style="fill:#270104;" d="M116.81,64.01c-0.03,0.07-0.04,0.15-0.06,0.22h-6.56c-0.13-0.4-0.05-0.81,0.18-1.11
			c0.1-0.12,0.22-0.22,0.37-0.3c-0.05,0.09-0.09,0.18-0.11,0.28c-0.04,0.21-0.03,0.43,0.03,0.65h5.76
			C116.55,63.84,116.68,63.93,116.81,64.01z"/>
		<path style="fill:#270104;" d="M123.75,65.01c-0.12,0.16-0.27,0.31-0.46,0.45c-0.66,0.54-1.26,1.16-1.94,1.78
			c-0.07-0.07-0.15-0.14-0.23-0.21c-0.73-0.64-1.46-1.25-2.12-1.92c-0.2-0.2-0.28-0.62-0.25-0.94c0.08-0.86-0.25-1.34-1.05-1.74
			c-3.09-1.53-4.74-5.02-3.99-8.33c0.05-0.22,0.19-0.47,0.37-0.63c0.06-0.07,0.12-0.11,0.19-0.15c0.02-0.01,0.03-0.01,0.04-0.02
			c-0.01,0.03-0.03,0.06-0.04,0.1c-0.04,0.07-0.07,0.15-0.08,0.22c-0.75,3.31,0.89,6.8,3.99,8.33c0.8,0.4,1.12,0.89,1.05,1.75
			c-0.03,0.31,0.04,0.73,0.25,0.93c0.66,0.67,1.4,1.29,2.14,1.94c0.07,0.06,0.14,0.13,0.21,0.19
			C122.5,66.15,123.09,65.54,123.75,65.01z"/>
		<path style="fill:#270104;" d="M133.04,63.95c0,0.15-0.01,0.32-0.04,0.49c-0.31-0.01-0.62-0.02-0.92-0.04
			c-2.08-0.08-4.12-0.17-6.36-0.27c0.2-0.16,0.38-0.32,0.56-0.48c2,0.09,3.85,0.17,5.7,0.25C132.33,63.92,132.68,63.93,133.04,63.95
			z"/>
		<path style="fill:#270104;" d="M142.2,81.69c-0.21,0.71-0.61,1.31-1.14,1.74c0.29-0.36,0.52-0.79,0.66-1.26
			c0.44-1.49-0.09-2.93-1.36-3.9c-0.3-0.23-0.57-0.57-0.7-0.91c-0.1-0.25-0.2-0.49-0.29-0.74c-0.87-2.22-1.69-4.45-2.55-6.66
			c-0.39-1.02-0.65-2.16-1.29-3c-0.7-0.91-0.76-1.81-0.76-2.82c0-2.05-1.19-3.2-3.28-3.22h-2.38c0.01-0.17,0-0.23,0.02-0.27
			c1.28-2.1,1.7-4.35,1.26-6.76c-0.04-0.22,0.16-0.51,0.32-0.72c0.4-0.56,0.91-1.05,1.23-1.64c0.15-0.29,0.1-0.84-0.1-1.09
			c-0.16-0.21-0.7-0.27-1.01-0.19c-1.07,0.31-1.91,0.02-2.62-0.76c-2.15-2.38-4.86-3.21-8.01-2.97c-1.25,0.09-2.46,0.49-3.55,1.12
			c-0.65,0.37-1.26,0.83-1.81,1.35c0.32-0.35,0.67-0.68,1.04-0.97c1.38-1.12,3.05-1.85,4.79-1.98c3.16-0.24,5.87,0.6,8.02,2.97
			c0.71,0.79,1.55,1.07,2.62,0.77c0.31-0.09,0.85-0.02,1.01,0.18c0.2,0.26,0.25,0.81,0.1,1.09c-0.32,0.59-0.84,1.08-1.24,1.64
			c-0.15,0.21-0.35,0.5-0.31,0.72c0.44,2.42,0.02,4.67-1.26,6.76c-0.02,0.04-0.01,0.11-0.02,0.28c0.8,0,1.59-0.01,2.38,0
			c2.09,0.02,3.28,1.16,3.28,3.21c0,1.02,0.06,1.91,0.75,2.82c0.65,0.84,0.9,1.98,1.3,3c0.86,2.22,1.68,4.44,2.55,6.66
			c0.09,0.25,0.19,0.49,0.28,0.74c0.14,0.35,0.41,0.68,0.71,0.91C142.11,78.76,142.64,80.21,142.2,81.69z"/>
		<path style="fill:#270104;" d="M102.31,77.91c-0.08,0.11-0.16,0.21-0.26,0.29c-0.09,0.07-0.17,0.14-0.25,0.21
			C101.95,78.24,102.12,78.07,102.31,77.91z"/>
		<path style="fill:#270104;" d="M106.63,71.72c-0.75,1.72-1.28,3.54-1.92,5.37c0.84,0,1.65,0.13,2.37,0.09
			c0.3-0.02,0.57-0.07,0.82-0.17c-0.11,0.22-0.25,0.38-0.42,0.45c-0.19,0.09-0.4,0.14-0.62,0.17c-0.77,0.1-1.69-0.07-2.62-0.07
			c0.64-1.82,1.16-3.64,1.91-5.36c0.68-1.56,1.51-3.07,2.45-4.48c0.24-0.35,0.51-0.66,0.82-0.92c-0.12,0.14-0.23,0.28-0.34,0.44
			C108.14,68.65,107.31,70.17,106.63,71.72z"/>
		<path style="fill:#270104;" d="M116.14,77.06c-0.06,0.45-0.25,0.49-0.96,0.49h-1.26v-5.8c0-1.71,0.01-3.42-0.01-5.13
			c0-0.06,0-0.12,0.01-0.17c0.03-0.31,0.17-0.45,0.48-0.47c-0.01,0.05-0.01,0.1-0.01,0.16v0.31c0.02,1.6,0.01,3.22,0.01,4.82v5.81
			h0.99C115.71,77.08,115.96,77.08,116.14,77.06z"/>
		<path style="fill:#270104;" d="M124.68,77.37c-0.05,0.22-0.18,0.38-0.52,0.5c-0.21,0.07-0.4,0.15-0.57,0.25
			c-0.13,0.07-0.24,0.14-0.35,0.21c-0.07,0.05-0.13,0.09-0.19,0.14c0.02-0.04,0.06-0.07,0.09-0.1c0.17-0.19,0.36-0.37,0.58-0.52
			h0.01c0.27-0.19,0.57-0.34,0.91-0.46C124.65,77.38,124.67,77.38,124.68,77.37z"/>
		<path style="fill:#270104;" d="M139.93,82.18c-0.14,0.21-0.33,0.39-0.56,0.53c-0.2,0.12-0.42,0.21-0.67,0.27
			c-0.22,0.05-0.45,0.08-0.7,0.08h-12.37c-1.29-0.01-2.17-0.76-2.18-1.86c0-0.16,0.02-0.31,0.05-0.46c0.08-0.36,0.26-0.67,0.53-0.92
			h0.01c0.06-0.05,0.12-0.11,0.19-0.15c-0.03,0.04-0.06,0.09-0.08,0.13c-0.08,0.14-0.13,0.3-0.17,0.46
			c-0.04,0.15-0.05,0.3-0.05,0.46c0.01,1.1,0.88,1.85,2.18,1.86h12.37c0.2,0,0.39-0.02,0.57-0.06c0.3-0.05,0.57-0.15,0.8-0.29
			C139.88,82.21,139.9,82.2,139.93,82.18z"/>
		<path style="fill:#270104;" d="M126.94,60.72c-0.01,0.02-0.03,0.04-0.05,0.06c-0.57,0.62-1.3,1.12-2.02,1.57
			c-0.08,0.05-0.15,0.1-0.21,0.15c0.14-0.25,0.39-0.44,0.69-0.62C125.9,61.53,126.46,61.16,126.94,60.72z"/>
		<path style="fill:#270104;" d="M137.98,77.61c-0.4,0-0.77,0-1.13,0.01c-0.45,0-0.87,0-1.29-0.03c-0.17-0.01-0.38-0.26-0.46-0.45
			c-0.3-0.68-0.54-1.39-0.83-2.07c-0.2-0.47-0.53-0.78-1.08-0.58c-0.01,0.01-0.03,0.01-0.04,0.02c0.06-0.21,0.23-0.39,0.52-0.5
			c0.54-0.2,0.88,0.11,1.07,0.58c0.29,0.69,0.54,1.39,0.84,2.08c0.08,0.18,0.29,0.43,0.45,0.44c0.21,0.01,0.42,0.02,0.63,0.02
			c0.37,0.01,0.75,0.01,1.14,0C137.86,77.29,137.92,77.45,137.98,77.61z"/>
		<path style="fill:#270104;" d="M121.79,81.52V82h-1.29c0-0.39,0.04-0.75,0-1.11c-0.01-0.05-0.01-0.1-0.02-0.15
			c-0.17-1.27-0.89-2.19-2.05-2.8c-0.22-0.11-0.49-0.38-0.49-0.58c-0.03-3.15-0.02-6.3-0.02-9.61v-1.33
			c0.16,0.15,0.32,0.29,0.48,0.43v1.33c0,2.98-0.01,5.84,0.01,8.7c0,0.2,0.28,0.47,0.5,0.58c1.16,0.62,1.87,1.53,2.05,2.8
			c0.01,0.05,0.01,0.1,0.02,0.15c0.01,0.07,0.01,0.14,0.01,0.22c0.01,0.29-0.01,0.58-0.01,0.89H121.79z"/>
		<path d="M140.7,80.76c-0.02,0.61-0.3,1.1-0.77,1.42c0.18-0.27,0.28-0.58,0.29-0.94c0.02-0.67-0.3-1.25-0.85-1.6
			c-0.36-0.23-0.81-0.36-1.33-0.36c-4.16-0.02-8.3-0.02-12.46,0c-0.53,0-1,0.14-1.35,0.39c0.35-0.53,1-0.86,1.83-0.87
			c4.15-0.02,8.3-0.02,12.45,0c0.52,0,0.98,0.14,1.34,0.37c0.03,0.01,0.06,0.04,0.09,0.06c0.38,0.27,0.63,0.65,0.71,1.09
			C140.69,80.46,140.7,80.61,140.7,80.76z"/>
		<path d="M123.03,78.5c-0.4,0.49-0.64,1.09-0.73,1.76c-0.02,0.19-0.03,0.38-0.03,0.58v0.68h-0.48v-0.2c0-0.2,0.01-0.39,0.03-0.58
			C121.94,79.82,122.35,79.05,123.03,78.5z"/>
		<path d="M125.19,76.51c0,0.42-0.04,0.68-0.51,0.86c0.03-0.11,0.03-0.24,0.03-0.38c-0.01-3.31,0-6.61-0.01-9.91
			c0-0.17-0.03-0.34-0.05-0.62c-0.32,0.29-0.62,0.58-0.92,0.85c-0.52,0.49-1.02,0.96-1.53,1.42c-0.37,0.33-0.64,0.48-0.92,0.45
			c-0.22-0.03-0.45-0.18-0.75-0.44c-0.68-0.6-1.36-1.21-2.13-1.89v-0.91c0.07,0.06,0.14,0.13,0.21,0.19
			c0.05,0.05,0.1,0.09,0.15,0.14c0.22,0.2,0.45,0.4,0.68,0.6c0.03,0.03,0.06,0.05,0.09,0.08c0.13,0.12,0.26,0.23,0.38,0.34
			c0.16,0.14,0.33,0.29,0.49,0.43c0.2,0.18,0.4,0.36,0.61,0.54c0.32,0.28,0.56,0.43,0.79,0.44c0.6-0.56,1.22-1.14,1.89-1.76
			c0.01,0.14,0.03,0.25,0.04,0.35c0.44-0.42,0.9-0.85,1.39-1.3c0.03,0.27,0.06,0.44,0.06,0.61
			C125.19,69.9,125.18,73.21,125.19,76.51z"/>
		<path d="M129.35,66.87c0.01,3.07,0,6.13,0,9.19v0.85c-0.13,0.1-0.15,0.12-0.18,0.12c-0.1,0.02-0.2,0.03-0.29,0.04v-0.53
			c0-3.06,0-6.12-0.01-9.19c0-1.57,0.23-1.31-1.43-1.39c-0.19-0.01-0.34,0-0.47,0.03c0.09-0.38,0.35-0.53,0.95-0.51
			C129.58,65.56,129.34,65.3,129.35,66.87z"/>
		<path d="M112.73,57.73c0.27,0.92,0.67,1.82,1.24,2.73h-0.05c-0.26,0-0.49-0.01-0.72-0.01c-0.99-1.75-1.37-3.5-1.3-5.38
			c0.08-2.29,1.23-4.49,2.94-6.08c-1.44,1.54-2.39,3.53-2.47,5.6c-0.03,1.07,0.08,2.1,0.36,3.1V57.73z"/>
		<path d="M105.12,70.36c0.66-1.67,1.6-3.19,2.9-4.47c-1.06,1.17-1.84,2.53-2.42,3.99c-0.91,2.34-1.71,4.72-2.58,7.07
			c-0.1,0.28-0.27,0.6-0.49,0.77c-0.08,0.06-0.15,0.12-0.22,0.19c0.1-0.15,0.17-0.32,0.23-0.48
			C103.41,75.07,104.21,72.7,105.12,70.36z"/>
		<path d="M108.83,63.28c-0.02,0.45,0.03,0.91-0.02,1.36c-0.03,0.26-0.13,0.58-0.32,0.76c-0.16,0.16-0.31,0.32-0.47,0.48
			c0.18-0.19,0.28-0.5,0.31-0.76c0.05-0.45,0.01-0.91,0.03-1.37c0.04-0.89,0.45-1.66,1.1-2.17
			C109.09,62.04,108.87,62.63,108.83,63.28z"/>
		<path d="M112.66,65.46v11.63h-0.48V65.94c-0.99-0.07-1.81,0.17-2.49,0.65c-0.09,0.06-0.18,0.13-0.27,0.21
			c-0.31,0.26-0.58,0.57-0.82,0.92c-0.94,1.41-1.77,2.92-2.45,4.48c-0.75,1.72-1.27,3.54-1.91,5.36c0.93,0,1.85,0.17,2.62,0.07
			c-0.09,0.14-0.2,0.25-0.33,0.31c-0.88,0.38-2.06,0.1-3.25,0.1c0.64-1.82,1.17-3.64,1.92-5.36c0.68-1.56,1.51-3.07,2.45-4.48
			c0.48-0.72,1.12-1.28,1.92-1.57C110.33,65.83,111.35,65.37,112.66,65.46z"/>
		<path d="M133.48,63.96c-0.15,0-0.29-0.01-0.44-0.01c-0.03-0.85-0.57-1.31-1.66-1.33c-1.07-0.01-2.15-0.03-3.23,0.01
			c-0.51,0.02-0.89,0.22-1.27,0.51c-0.2,0.16-0.39,0.33-0.6,0.51c-0.18,0.16-0.36,0.32-0.56,0.48c2.24,0.1,4.28,0.19,6.36,0.27
			c0.01,0.16-0.01,0.33-0.04,0.52c-2.4-0.1-4.71-0.2-7.28-0.32c0.75-0.57,1.25-1.22,2-1.43c0.59-0.52,1.09-1,1.87-1.02
			c1.08-0.04,2.16-0.02,3.23-0.01C133.15,62.16,133.67,62.81,133.48,63.96z"/>
		<path d="M127.37,60.3c-0.14,0.15-0.28,0.29-0.43,0.42c1.67-1.86,2.27-4.04,1.78-6.56c-3.26,0.67-6.31,0.14-9.24-1.11
			c-1.8-0.77-3.49-0.58-5.17,0.25c0.11-0.19,0.27-0.37,0.44-0.46c1.69-0.84,3.4-1.04,5.21-0.26c2.93,1.24,5.98,1.77,9.24,1.11
			C129.69,56.23,129.07,58.43,127.37,60.3z"/>
		<path d="M141.06,83.43c-0.41,0.5-0.95,0.88-1.59,1.08c-0.03,0.01-0.07,0.02-0.1,0.03c-0.18,0.05-0.37,0.09-0.57,0.11
			c-0.12,0.02-0.24,0.03-0.36,0.03c-1.58,0-3.18,0.01-4.76,0.02c-1.09,0-2.18,0-3.26-0.01c-1.73,0-3.45-0.01-5.18-0.02
			c-0.56-0.01-1.16-0.22-1.68-0.48c-0.48-0.24-0.96-0.4-1.44-0.49c-1.12-0.22-2.22-0.06-3.36,0.47c-0.63,0.29-1.38,0.5-2.08,0.51
			c-1.93,0.01-3.87,0.03-5.8,0.03c-2.22,0-4.44-0.01-6.66-0.02c-1.8,0-3.12-0.91-3.62-2.41c-0.17-0.53-0.23-1.05-0.16-1.54
			c0.11-0.85,0.57-1.63,1.36-2.33c-0.5,0.57-0.8,1.19-0.89,1.85c-0.06,0.5,0,1.01,0.17,1.54c0.02,0.06,0.05,0.12,0.07,0.18
			c-0.02-0.11-0.03-0.22-0.03-0.34c0-0.06,0.01-0.12,0.01-0.18c0-0.08,0.02-0.16,0.04-0.24c0.16-0.7,0.71-1.23,1.49-1.4
			c-0.27,0.24-0.45,0.56-0.54,0.92c-0.02,0.08-0.03,0.16-0.03,0.24c-0.01,0.06-0.01,0.12-0.01,0.18c0,0.5,0.17,0.93,0.49,1.26
			c0.38,0.4,0.95,0.63,1.66,0.63c2.07,0.01,4.15,0.01,6.22,0.01c2.08,0,4.16,0,6.23-0.01c0.22,0,0.44-0.02,0.64-0.07
			c-0.39,0.34-0.94,0.54-1.6,0.55c-2.07,0.01-4.15,0-6.22,0c-2.08,0-4.16,0.01-6.23,0c-0.58-0.01-1.07-0.16-1.44-0.44
			c0.68,0.72,1.67,1.12,2.86,1.13c2.23,0.01,4.44,0.01,6.67,0.01c1.93,0,3.87-0.01,5.8-0.03c0.7-0.01,1.45-0.21,2.08-0.51
			c1.14-0.52,2.24-0.69,3.36-0.47c0.47,0.09,0.96,0.26,1.44,0.49c0.52,0.26,1.12,0.47,1.68,0.48c1.73,0.01,3.45,0.02,5.18,0.02
			c1.08,0.01,2.17,0.01,3.26,0.01c1.58,0,3.17-0.01,4.76-0.02c0.12,0,0.24-0.01,0.36-0.03l0.57-0.11c0.06-0.01,0.12-0.03,0.17-0.05
			C140.41,83.88,140.75,83.68,141.06,83.43z"/>
		<path d="M119.33,80.7c-0.01,0.63-0.29,1.15-0.77,1.47c0.19-0.28,0.29-0.61,0.29-0.99c0-0.15-0.02-0.3-0.05-0.44
			c-0.19-0.85-0.96-1.45-2.02-1.46c-4.21-0.02-8.41-0.02-12.62,0c-0.51,0-0.96,0.14-1.3,0.39c0.35-0.53,0.98-0.86,1.78-0.87
			c4.21-0.02,8.41-0.02,12.62,0.01c0.49,0,0.92,0.13,1.25,0.35c0.39,0.26,0.66,0.65,0.76,1.1c0.01,0.02,0.01,0.03,0.01,0.04
			C119.31,80.43,119.33,80.57,119.33,80.7z"/>
		<path d="M116.64,75.89c0,0.88-0.01,1.11-0.5,1.17c0.02-0.17,0.02-0.39,0.02-0.7c0-2.96,0-5.93-0.01-8.89
			c0-1.69,0.22-1.46-1.59-1.5c-0.06,0-0.11,0-0.16,0.01c0.02-0.36,0.21-0.5,0.64-0.49c1.81,0.04,1.59-0.19,1.59,1.5
			C116.64,69.96,116.64,72.92,116.64,75.89z"/>
		<path d="M117.29,63.53c-0.03,0.08-0.05,0.15-0.07,0.22h-0.8c-0.62-0.42-1.22-0.91-1.9-1.07c-0.99-0.24-2.08-0.1-3.13-0.04
			c-0.25,0.01-0.47,0.08-0.65,0.18c0.19-0.37,0.59-0.63,1.13-0.66c1.04-0.05,2.14-0.19,3.13,0.04
			C115.82,62.39,116.53,63.07,117.29,63.53z"/>
		<path d="M124.52,63.27c0.13,0.74-0.18,1.25-0.75,1.72c0,0-0.01,0.01-0.02,0.01c0.27-0.35,0.38-0.74,0.29-1.25
			c-0.1-0.59,0.18-0.94,0.62-1.25C124.52,62.71,124.47,62.96,124.52,63.27z"/>
		<path d="M115.85,64.49c-0.02,0.07-0.04,0.15-0.06,0.22h-6.56c-0.23-0.76,0.23-1.5,1.14-1.59c-0.23,0.3-0.31,0.71-0.18,1.11h5.27
			C115.59,64.32,115.72,64.41,115.85,64.49z"/>
		<path d="M137.03,78.09c-0.9,0-1.67,0.02-2.43-0.02c-0.16-0.01-0.37-0.27-0.45-0.45c-0.08-0.17-0.15-0.34-0.22-0.52h-0.66
			c-0.18-0.49-0.37-0.96-0.54-1.43c-0.11-0.28-0.13-0.53-0.04-0.74c0.07-0.18,0.22-0.32,0.46-0.42c0.01-0.01,0.03-0.01,0.04-0.02
			c0.55-0.2,0.88,0.11,1.08,0.58c0.29,0.68,0.53,1.39,0.83,2.07c0.08,0.19,0.29,0.44,0.46,0.45c0.42,0.03,0.84,0.03,1.29,0.03
			C136.91,77.77,136.97,77.93,137.03,78.09z"/>
		<path d="M138.7,82.98c-0.09,0.08-0.19,0.15-0.29,0.21c-0.35,0.22-0.82,0.34-1.37,0.34h-0.79c-1.78,0.01-3.57,0-5.35,0
			c-2.08,0-4.15,0.01-6.23,0c-1.29-0.01-2.16-0.76-2.17-1.86c0-0.15,0.01-0.31,0.04-0.45c0.16-0.7,0.71-1.22,1.49-1.4
			c-0.27,0.25-0.45,0.56-0.53,0.92c-0.03,0.15-0.05,0.3-0.05,0.46c0.01,1.1,0.89,1.85,2.18,1.86H138
			C138.25,83.06,138.48,83.03,138.7,82.98z"/>
		<path d="M115.43,50.98c1.69-0.37,3.15-0.13,4.63,0.38c1.59,0.54,3.24,0.98,4.9,1.28c0.96,0.18,1.94,0.14,2.88-0.1
			c0.05,0.03,0.09,0.06,0.14,0.09c-1.25,0.56-2.63,0.73-3.98,0.49c-1.65-0.3-3.3-0.74-4.89-1.28c-1.48-0.51-2.95-0.75-4.63-0.39
			c0.7-0.95,1.5-1.61,2.41-2.05h0.01c0.92-0.82,1.98-1.29,3.19-1.51c2.9-0.53,5.37,0.22,7.41,2.37c0.52,0.55,1.23,0.92,1.91,1.42
			c-0.25,0.11-0.5,0.2-0.75,0.28c-0.6-0.41-1.19-0.75-1.64-1.22c-2.04-2.15-4.51-2.9-7.41-2.37c-0.85,0.15-1.63,0.43-2.33,0.87
			c-0.3,0.18-0.59,0.4-0.87,0.65C116.06,50.2,115.74,50.56,115.43,50.98z"/>
		<path d="M123.59,78.12c-0.08,0.08-0.19,0.15-0.35,0.21C123.35,78.26,123.46,78.19,123.59,78.12z"/>
		<path d="M112.53,61.41c-0.88,0-1.58-0.02-2.27,0.01c-0.26,0.01-0.51,0.05-0.75,0.12c0.47-0.36,1.06-0.57,1.71-0.6
			c0.33-0.02,0.67-0.02,1.03-0.02C112.33,61.09,112.43,61.25,112.53,61.41z"/>
		<path style="fill:none;" d="M137.37,85.16c0.5,0,1,0,1.5,0"/>
		<path d="M111.22,77.56v0.48h-2.76c0.23-0.61,0.46-1.17,0.67-1.75c0.18-0.47,0.22-0.94-0.26-1.2c-0.25,0.75-0.42,1.68-0.91,1.9
			c-0.02,0.01-0.04,0.02-0.06,0.02c0.25-0.49,0.39-1.24,0.62-1.79c0.04-0.08,0.07-0.15,0.11-0.23c0.13-0.23,0.27-0.4,0.48-0.47
			c0.16-0.07,0.34-0.06,0.57,0.02c0.64,0.24,0.6,0.76,0.41,1.28c-0.22,0.57-0.44,1.13-0.68,1.74H111.22z"/>
	</g>
	<g>
		<path style="fill:none;" d="M41.52,130.09c0-0.34-0.13-0.72-0.38-1.16c-0.28-0.53-0.59-0.79-0.93-0.79h-5.39
			c0,0.87,0.4,1.68,1.19,2.44c0.79,0.76,1.7,1.14,2.72,1.14C40.59,131.72,41.52,131.17,41.52,130.09z"/>
		<path style="fill:none;" d="M40.04,142.3v-6.79c-1.61,0.41-3.47,1.4-5.56,2.96C36.77,139.56,38.62,140.84,40.04,142.3z"/>
		<path style="fill:none;" d="M41.3,146.84c-1.07,0.08-1.61,0.4-1.61,0.96c0,0.61,0.41,0.91,1.23,0.91c0.45,0,0.99-0.11,1.61-0.33
			c0.74-0.24,1.1-0.52,1.1-0.84l-0.04-0.15c-0.29-0.37-0.84-0.56-1.61-0.58v0.58L41.3,146.84z"/>
		<path d="M72.01,126.24H48.15l0.04,0.04H21.4l2.08,1.86h7.26c0.36,0,0.55,0.19,0.55,0.58c0,0.6-0.31,1.3-0.94,2.1
			c-0.67,0.86-1.34,1.3-1.99,1.3c-0.31,0-0.91-0.4-1.78-1.21c-0.09,0.05-0.23,0.24-0.43,0.55c-0.2,0.32-0.3,0.54-0.3,0.66
			c0,0.46,0.46,1,1.38,1.62c0.92,0.62,1.67,0.93,2.23,0.93c0.88,0,1.8-0.63,2.76-1.9c0.85-1.07,1.36-2.04,1.53-2.91
			c0.06,1.02,0.72,2.03,2,3.02c0.59,0.47,1.17,0.82,1.74,1.07c-2.27,1.03-4.75,2.39-7.43,4.11l2.04,2.59c4.07,0,6.78,1.42,8.11,4.24
			l0.14,0.29c-0.5,0.12-0.95,0.31-1.34,0.58c-0.79,0.54-1.18,1.23-1.18,2.08c0,0.88,0.42,1.55,1.27,2.01
			c0.74,0.41,1.64,0.62,2.72,0.62c0.88,0,1.74-0.32,2.59-0.95c0.79-0.59,1.2-0.91,1.2-0.95c0.18,0.01,0.8,0.39,1.86,1.13
			c1.07,0.76,2.38,1.85,3.9,3.29c0.12,0.09,0.2,0.14,0.26,0.14c0.17,0,0.25-0.08,0.25-0.25c0-0.81-0.61-1.84-1.83-3.1
			c-1.01-1.03-2.04-1.86-3.09-2.52c-0.09-0.34-0.13-0.65-0.13-0.91v-0.62c-0.06-0.44-0.27-0.96-0.64-1.57
			c-0.42-0.73-0.83-1.1-1.23-1.1l-0.08,0.04c0,0.27,0.01,0.66,0.04,1.17c0.03,0.51,0.04,0.9,0.04,1.16c0,0.38-0.08,0.58-0.24,0.59
			c0,0,0,0-0.01,0c-0.07-0.07-0.43-0.23-1.1-0.49c-0.62-0.25-1.16-0.41-1.62-0.47v-9.48c0.23-0.04,0.47-0.07,0.72-0.07
			c0.99,0,1.95,0.32,2.89,0.95c0.93,0.63,1.4,1.37,1.4,2.23c0,0.19-0.04,0.34-0.13,0.43c-0.45-0.26-0.83-0.4-1.14-0.4
			c-1.33,0-2,0.57-2,1.72c0,0.43,0.19,0.82,0.55,1.15c0.37,0.32,0.81,0.49,1.32,0.49c0.88,0,1.6-0.34,2.16-1.02
			c0.51-0.61,0.77-1.3,0.77-2.08c0-2.48-1.54-4.27-4.63-5.37c-0.7-0.24-1.22-0.4-1.56-0.47c0.01-0.01,0.02-0.02,0.03-0.04
			c0.62-0.78,0.94-1.72,0.94-2.84c0-0.29-0.03-0.57-0.09-0.84c-0.11-0.49-0.37-0.88-0.76-1.17c0-0.02,0.01-0.03,0.04-0.03
			c0.37-0.03,0.65-0.05,0.85-0.05c0.65-0.02,1.67-0.03,3.06-0.03h5.9l-0.04-0.04h14.52v5.04c-0.82-2.14-2.12-3.21-3.9-3.21
			c-0.45,0-0.97,0.26-1.56,0.8c-0.6,0.53-0.89,0.99-0.89,1.39c-1.33-1.51-2.84-2.26-4.54-2.26c-1.44,0-2.61,0.54-3.51,1.64
			c-0.82,0.97-1.23,2.1-1.23,3.39c0,1.58,0.54,2.84,1.62,3.78c1.07,0.93,2.53,1.4,4.37,1.4c0.76,0,1.47-0.18,2.12-0.55
			c0.77-0.41,1.15-0.93,1.15-1.56c0-0.73-0.25-1.42-0.74-2.07c-0.5-0.64-1.14-0.96-1.94-0.96c-0.68,0-1.25,0.18-1.72,0.54
			c-0.46,0.37-0.7,0.84-0.7,1.43c0,0.48,0.22,0.96,0.64,1.42c-1.87-0.27-2.8-1.13-2.8-2.59c0-0.88,0.39-1.62,1.17-2.24
			c0.77-0.62,1.67-0.93,2.69-0.93c1.02,0,1.86,0.2,2.51,0.62c0.53,0.34,1.1,0.92,1.7,1.75c0.28,0.41,0.42,0.68,0.42,0.8v0.07
			l0.89-0.29c-0.14-0.72-0.21-1.13-0.21-1.26c0-1.13,0.57-1.69,1.71-1.69c0.69,0,1.32,0.24,1.89,0.74c0.57,0.49,0.86,1.03,0.86,1.63
			v10.1l2.16,1.79V128.1h5.27L72.01,126.24z M40.04,142.3c-1.42-1.46-3.27-2.74-5.57-3.83c2.1-1.56,3.95-2.55,5.57-2.96V142.3z
			 M38.72,131.72c-1.02,0-1.93-0.38-2.72-1.14c-0.79-0.76-1.19-1.57-1.19-2.44h5.4c0.34,0,0.65,0.27,0.93,0.8
			c0.26,0.43,0.38,0.81,0.38,1.15C41.52,131.17,40.59,131.72,38.72,131.72z M43.6,147.4l0.05,0.15c0,0.32-0.37,0.6-1.11,0.84
			c-0.62,0.22-1.16,0.33-1.61,0.33c-0.82,0-1.23-0.31-1.23-0.91c0-0.57,0.53-0.89,1.6-0.97l0.69,0.56v-0.57
			C42.76,146.85,43.31,147.04,43.6,147.4z"/>
	</g>
	<g>
		<path style="fill:#270104;" d="M141.76,124.95V91.01c0-0.12-0.03-0.25-0.08-0.36c-0.6-1.34-1.47-2.52-2.6-3.53
			c-0.95-0.84-2.05-1.5-3.29-1.95c-0.64,0-1.27,0.01-1.9,0.01c1.24,0.45,2.33,1.1,3.28,1.94c1.13,1.01,1.99,2.19,2.6,3.53
			c0.05,0.11,0.08,0.24,0.08,0.36v33.94c0,0.47,0.38,0.86,0.85,0.86h1.91C142.14,125.81,141.76,125.42,141.76,124.95z M142.75,78.27
			c-0.3-0.23-0.57-0.57-0.7-0.91c-0.08-0.2-0.16-0.39-0.23-0.59c-0.04-0.1-0.06-0.2-0.06-0.31V47.33c0-0.47,0.38-0.85,0.85-0.85
			h-1.91c-0.47,0-0.85,0.38-0.85,0.85v27.49l0.44,1.15l0.29,0.74c0.1,0.25,0.3,0.52,0.54,0.7c1.18,0.9,1.78,2.15,1.7,3.47
			c0.03,0.46-0.02,0.94-0.16,1.42c-0.31,1.05-0.99,1.89-1.89,2.38h0.06c0.12,0,0.24-0.01,0.36-0.03l0.57-0.11
			c1.14-0.32,2.01-1.21,2.35-2.37C144.55,80.68,144.02,79.24,142.75,78.27z M181.27,92.7c-0.31,0.08-0.65,0.18-1.01,0.3
			c0.11,0.14,0.18,0.32,0.18,0.53v15.42c0,0.05-0.01,0.1-0.02,0.15c0.08,0.08,0.16,0.15,0.24,0.22c0.08,0.08,0.15,0.16,0.23,0.23
			c0.54,0.55,1.46,0.16,1.46-0.6V93.53C182.35,92.96,181.81,92.55,181.27,92.7z M182.35,124.86v-6.16c0-0.1-0.02-0.2-0.05-0.3
			c-0.29-0.78-0.82-1.65-1.59-2.62c-0.83-1.03-1.83-2.09-3.02-3.18c-1.18-1.09-2.49-2.15-3.92-3.19c-1.44-1.04-2.89-1.97-4.39-2.8
			c-1.49-0.82-2.95-1.49-4.38-1.98c-1.44-0.5-2.73-0.74-3.88-0.74c-0.25,0-0.48,0.01-0.69,0.02c-0.04,0.01-0.08,0.01-0.12,0.02
			c-0.31,0.04-0.62-0.1-0.8-0.36l-2.27-3.18c-0.29-0.4-0.18-0.95,0.23-1.22c7.47-4.84,15.55-8.39,24.24-10.66
			c0.38-0.09,0.64-0.43,0.64-0.82v-1.95c0-0.48-0.38-0.86-0.86-0.86h-1.91c0.48,0,0.86,0.38,0.86,0.86v1.95
			c0,0.39-0.27,0.73-0.64,0.82c-8.7,2.27-16.78,5.82-24.24,10.66c-0.41,0.27-0.52,0.82-0.23,1.22l2.27,3.18
			c0.18,0.26,0.49,0.4,0.8,0.36c0.04-0.01,0.08-0.01,0.12-0.02c0.21-0.01,0.44-0.02,0.69-0.02c1.15,0,2.44,0.24,3.88,0.74
			c1.43,0.49,2.89,1.16,4.38,1.98c1.49,0.83,2.95,1.76,4.38,2.8c1.44,1.04,2.75,2.1,3.93,3.19c1.19,1.09,2.19,2.15,3.02,3.18
			c0.77,0.97,1.3,1.84,1.59,2.62c0.03,0.1,0.05,0.2,0.05,0.3v6.16c0,0.48,0.38,0.86,0.85,0.86h1.91
			C182.73,125.72,182.35,125.34,182.35,124.86z M8.88,84.03V81.6c0-0.48,0.38-0.86,0.85-0.86H7.82c-0.47,0-0.85,0.38-0.85,0.86v2.43
			c0,0.47,0.38,0.85,0.85,0.85h1.91C9.26,84.88,8.88,84.5,8.88,84.03z M37.79,87.86c-0.29-0.03-0.59-0.04-0.9-0.04
			c-4.89,0-8.03,2.41-9.41,7.22c-0.14,0.49,0.17,0.99,0.66,1.09l2.78,0.53c0.28,0.06,0.56-0.03,0.75-0.22l-1.61-0.31
			c-0.5-0.1-0.81-0.6-0.67-1.09C30.68,90.57,33.48,88.18,37.79,87.86z M33.05,112.99c-2.1-0.7-4.02-1.66-5.76-2.88
			c-1.74-1.22-3.3-2.65-4.68-4.31c-1.39-1.67-2.63-3.45-3.71-5.36c-1.09-1.9-2.02-3.88-2.8-5.94c-0.67-1.78-1.24-3.56-1.73-5.33
			c-0.12-0.45,0.16-0.92,0.61-1.04l2.13-0.58c-0.21-0.26-0.55-0.38-0.89-0.28l-3.15,0.86c-0.46,0.12-0.73,0.59-0.61,1.04
			c0.48,1.77,1.06,3.55,1.73,5.33c0.78,2.06,1.71,4.04,2.8,5.94c1.08,1.91,2.31,3.69,3.7,5.36c1.39,1.66,2.95,3.09,4.69,4.31
			s3.66,2.18,5.76,2.88c2.1,0.72,4.4,1.07,6.91,1.07c0.26,0,0.53-0.01,0.79-0.02C36.77,113.94,34.83,113.6,33.05,112.99z
			 M47.68,98.18c-0.53-1.11-1.22-2.14-2.1-3.07c-0.89-0.93-1.91-1.69-3.08-2.27c-1.18-0.59-2.41-0.88-3.69-0.88
			c-0.3,0-0.58,0.03-0.86,0.07c0.9,0.11,1.78,0.39,2.63,0.81c1.17,0.58,2.2,1.34,3.09,2.27c0.88,0.93,1.57,1.96,2.09,3.07
			c0.52,1.12,0.78,2.2,0.78,3.23c0,1.14-0.22,2.23-0.66,3.25c-0.44,1.02-1.05,1.92-1.83,2.71c-0.78,0.79-1.71,1.41-2.81,1.88
			c-0.84,0.36-1.75,0.58-2.72,0.66c0.34,0.03,0.68,0.04,1.03,0.04c1.31,0,2.51-0.23,3.6-0.7c1.1-0.47,2.04-1.09,2.81-1.88
			c0.78-0.79,1.4-1.69,1.83-2.71c0.44-1.02,0.66-2.11,0.66-3.25C48.45,100.38,48.19,99.3,47.68,98.18z M57.89,84.88h-1.91
			c0.47,0,0.85,0.38,0.85,0.86v22.42l0.39,0.49c0.5,0.63,1.52,0.27,1.52-0.54V85.74C58.74,85.26,58.36,84.88,57.89,84.88z
			 M58.74,124.86v-6.26c0-0.18-0.06-0.36-0.17-0.51l-6.88-9.08c-0.32-0.43-0.95-0.46-1.31-0.06c-0.11,0.13-0.23,0.25-0.35,0.38
			l6.63,8.76c0.11,0.15,0.17,0.33,0.17,0.51v6.26c0,0.48,0.38,0.86,0.86,0.86h1.91C59.13,125.72,58.74,125.34,58.74,124.86z
			 M76.42,153.14V91.02c0-0.13-0.02-0.26-0.08-0.37c-0.6-1.34-1.48-2.52-2.62-3.53c-1.15-1.02-2.5-1.76-4.05-2.21
			c-0.08-0.02-0.17-0.03-0.26-0.03H67.5c0.09,0,0.17,0.01,0.26,0.03c1.55,0.45,2.9,1.19,4.05,2.21c1.14,1.01,2.01,2.19,2.62,3.53
			c0.05,0.11,0.08,0.24,0.08,0.37v62.12c0,0.48,0.38,0.86,0.85,0.86h1.91C76.8,154,76.42,153.62,76.42,153.14z M75.36,74.56
			c-0.47,0-0.85,0.38-0.85,0.85v7.66c0,0.06-0.01,0.11-0.02,0.16c0.12,0.12,0.25,0.23,0.37,0.35c0.03,0.03,0.07,0.06,0.1,0.1
			c0.54,0.53,1.46,0.15,1.46-0.61v-7.66c0-0.47,0.38-0.85,0.85-0.85H75.36z M107.65,93.65c-0.29-0.5-0.6-0.95-0.95-1.35
			c-0.58-0.67-1.39-1.27-2.45-1.79c-1.07-0.53-2.44-1.02-4.13-1.48c-1.54-0.41-3.46-0.85-5.74-1.3c-0.4-0.08-0.7-0.44-0.7-0.84
			v-1.15c0-0.48-0.38-0.86-0.85-0.86h-1.91c0.47,0,0.85,0.38,0.85,0.86v1.15c0,0.4,0.29,0.76,0.7,0.84c2.28,0.45,4.2,0.89,5.74,1.3
			c1.69,0.46,3.06,0.95,4.12,1.48c1.07,0.52,1.88,1.12,2.46,1.79c0.34,0.4,0.66,0.85,0.95,1.35c0.28,0.5,0,1.15-0.57,1.27
			c-7.92,1.67-11.87,6.02-11.87,13.05c0,1.11,0.27,2.3,0.81,3.58c0.54,1.29,1.29,2.48,2.23,3.59c0.95,1.1,2.03,2.03,3.25,2.77
			c1.22,0.74,2.52,1.1,3.9,1.1h0.37l0.08-0.14c-0.84-0.17-1.66-0.49-2.44-0.96c-1.22-0.74-2.3-1.67-3.25-2.77
			c-0.94-1.11-1.69-2.3-2.23-3.59c-0.54-1.28-0.81-2.47-0.81-3.58c0-7.03,3.96-11.38,11.87-13.05
			C107.65,94.8,107.93,94.15,107.65,93.65z M122.21,84.88h-1.91c0.48,0,0.86,0.38,0.86,0.86v14.57c0,0.02,0,0.05-0.01,0.07
			c0.14,0.16,0.27,0.31,0.39,0.47c0.52,0.62,1.53,0.27,1.53-0.54V85.74C123.07,85.26,122.69,84.88,122.21,84.88z M123.07,124.86
			v-13.08c0-0.54-0.2-1.24-0.59-2.09c-0.4-0.86-0.93-1.77-1.59-2.73c-0.67-0.96-1.43-1.92-2.29-2.87c-0.86-0.95-1.74-1.82-2.66-2.59
			c-0.91-0.78-1.81-1.41-2.69-1.9c-0.88-0.48-1.69-0.73-2.43-0.73c-0.46,0-0.91,0.02-1.35,0.05c0.59,0.09,1.21,0.32,1.87,0.68
			c0.88,0.49,1.78,1.12,2.69,1.9c0.92,0.77,1.8,1.64,2.66,2.59c0.85,0.95,1.62,1.91,2.28,2.87c0.67,0.96,1.2,1.87,1.59,2.73
			c0.4,0.85,0.6,1.55,0.6,2.09v13.08c0,0.48,0.38,0.86,0.85,0.86h1.91C123.45,125.72,123.07,125.34,123.07,124.86z"/>
		<path style="fill:#FFFFFF;" d="M191.19,80.74h-45.68c-0.47,0-0.86-0.38-0.86-0.85V47.33c0-0.47-0.38-0.85-0.85-0.85h-1.19
			c-0.47,0-0.85,0.38-0.85,0.85v29.13c0,0.11,0.02,0.21,0.06,0.31c0.07,0.2,0.15,0.39,0.23,0.59c0.13,0.34,0.4,0.68,0.7,0.91
			c1.27,0.97,1.8,2.41,1.36,3.9c-0.34,1.16-1.21,2.05-2.35,2.37l-0.57,0.11c-0.12,0.02-0.24,0.03-0.36,0.03h-0.06
			c-0.24,0.13-0.5,0.24-0.77,0.32c-0.01,0-0.02,0-0.02,0l-0.61,0.12c-0.03,0-0.06,0.01-0.08,0.01c-0.01,0-0.01,0-0.01,0
			c-0.14,0.02-0.25,0.02-0.36,0.02h-0.05c-0.5,0.01-1,0.01-1.5,0.01c-0.52,0.01-1.05,0.01-1.58,0.01c1.24,0.45,2.34,1.11,3.29,1.95
			c1.13,1.01,2,2.19,2.6,3.53c0.05,0.11,0.08,0.24,0.08,0.36v33.94c0,0.47,0.38,0.86,0.85,0.86h1.19c0.47,0,0.85-0.39,0.85-0.86
			V85.74c0-0.48,0.39-0.86,0.86-0.86h35.98c0.48,0,0.86,0.38,0.86,0.86v1.95c0,0.39-0.26,0.73-0.64,0.82
			c-8.69,2.27-16.77,5.82-24.24,10.66c-0.41,0.27-0.52,0.82-0.23,1.22l2.27,3.18c0.18,0.26,0.49,0.4,0.8,0.36
			c0.04-0.01,0.08-0.01,0.12-0.02c0.21-0.01,0.44-0.02,0.69-0.02c1.15,0,2.44,0.24,3.88,0.74c1.43,0.49,2.89,1.16,4.38,1.98
			c1.5,0.83,2.95,1.76,4.39,2.8c1.43,1.04,2.74,2.1,3.92,3.19c1.19,1.09,2.19,2.15,3.02,3.18c0.77,0.97,1.3,1.84,1.59,2.62
			c0.03,0.1,0.05,0.2,0.05,0.3v6.16c0,0.48,0.38,0.86,0.85,0.86h1.19c0.47,0,0.85-0.38,0.85-0.86V85.74c0-0.48,0.39-0.86,0.86-0.86
			h5.09c0.48,0,0.86-0.38,0.86-0.85V81.6C192.05,81.12,191.67,80.74,191.19,80.74z M182.35,108.95c0,0.76-0.92,1.15-1.46,0.6
			c-0.08-0.07-0.15-0.15-0.23-0.23c-0.08-0.07-0.16-0.14-0.24-0.22c-0.11,0.66-0.94,0.96-1.44,0.45c-0.08-0.07-0.15-0.15-0.23-0.23
			c-0.82-0.78-1.76-1.58-2.85-2.39c-1.08-0.8-2.24-1.58-3.49-2.33c-1.24-0.75-2.48-1.42-3.72-2.03c-1.24-0.6-2.43-1.09-3.55-1.47
			c-0.34-0.12-0.67-0.22-0.97-0.3c-0.74-0.2-0.85-1.19-0.19-1.56c0.09-0.06,0.18-0.11,0.28-0.16c0.9-0.51,1.91-1.03,3.04-1.58
			c1.13-0.54,2.33-1.09,3.59-1.65c1.27-0.55,2.49-1.05,3.67-1.51c1.19-0.46,2.3-0.86,3.34-1.2c0.54-0.17,1.02-0.32,1.46-0.44
			c0.35-0.1,0.7,0.04,0.9,0.3c0.36-0.12,0.7-0.22,1.01-0.3c0.54-0.15,1.08,0.26,1.08,0.83V108.95z"/>
		<path style="fill:#FFFFFF;" d="M126.2,85.15c-0.14,0.15-0.23,0.36-0.23,0.59v39.13c0,0.47-0.38,0.86-0.86,0.86h-1.19
			c-0.47,0-0.86-0.38-0.86-0.86v-13.08c0-0.54-0.2-1.24-0.59-2.1c-0.4-0.86-0.93-1.76-1.59-2.72c-0.66-0.97-1.43-1.92-2.28-2.87
			c-0.86-0.95-1.74-1.82-2.66-2.59c-0.91-0.78-1.81-1.41-2.69-1.9c-0.88-0.48-1.7-0.73-2.44-0.73c-0.46,0-0.91,0.01-1.34,0.05
			c-0.2-0.03-0.38-0.05-0.57-0.05c-3.34,0-5.98,0.76-7.92,2.29c-1.94,1.52-2.92,3.71-2.92,6.57c0,3.95,2.25,6.45,6.75,7.52
			c0.57,0.14,0.85,0.78,0.54,1.28l-1.41,2.34c-0.85-0.16-1.66-0.49-2.44-0.96c-1.22-0.74-2.3-1.66-3.25-2.77
			c-0.95-1.11-1.69-2.3-2.23-3.59c-0.54-1.28-0.81-2.48-0.81-3.58c0-7.03,3.96-11.38,11.87-13.05c0.57-0.12,0.86-0.76,0.57-1.27
			c-0.29-0.5-0.6-0.95-0.95-1.35c-0.58-0.67-1.4-1.27-2.46-1.79c-1.06-0.53-2.44-1.01-4.13-1.47c-1.54-0.41-3.45-0.85-5.74-1.3
			c-0.4-0.08-0.69-0.43-0.69-0.84v-1.15c0-0.47-0.38-0.86-0.86-0.86H80.17c-0.47,0-0.86,0.38-0.86,0.86v67.41
			c0,0.47-0.38,0.86-0.86,0.86h-1.19c-0.47,0-0.86-0.38-0.86-0.86V91.02c0-0.13-0.02-0.25-0.08-0.36c-0.61-1.35-1.48-2.52-2.62-3.53
			c-1.16-1.02-2.5-1.76-4.06-2.21c-0.08-0.02-0.17-0.03-0.25-0.03h-6.95c-0.47,0-0.86,0.38-0.86,0.86v39.13
			c0,0.47-0.38,0.86-0.86,0.86H59.6c-0.47,0-0.86-0.38-0.86-0.86v-6.26c0-0.19-0.06-0.37-0.17-0.52l-6.88-9.08
			c-0.32-0.43-0.95-0.45-1.31-0.06c-0.12,0.13-0.24,0.26-0.36,0.38l-0.24-0.32c-0.32-0.43-0.95-0.45-1.31-0.06
			c-2.89,3.17-6.1,4.87-9.63,5.09c-2.08-0.09-4.01-0.43-5.8-1.04c-2.1-0.71-4.01-1.67-5.75-2.89c-1.74-1.21-3.3-2.65-4.69-4.31
			c-1.39-1.66-2.62-3.45-3.71-5.35c-1.08-1.9-2.02-3.89-2.8-5.94c-0.67-1.78-1.25-3.56-1.73-5.33c-0.12-0.45,0.15-0.92,0.61-1.05
			l2.13-0.58c0.08,0.09,0.13,0.2,0.17,0.32c0.37,1.34,0.8,2.74,1.32,4.2c0.62,1.76,1.39,3.48,2.29,5.18
			c0.9,1.69,1.92,3.31,3.04,4.84c1.13,1.53,2.39,2.89,3.79,4.05c1.4,1.17,2.92,2.09,4.57,2.78c1.65,0.69,3.43,1.04,5.35,1.04
			c0.3,0,0.59-0.01,0.88-0.04c0.34,0.03,0.68,0.04,1.03,0.04c1.3,0,2.51-0.23,3.6-0.7c1.09-0.46,2.03-1.09,2.81-1.88
			c0.78-0.79,1.39-1.69,1.83-2.71c0.44-1.02,0.66-2.11,0.66-3.25c0-1.03-0.26-2.11-0.78-3.23c-0.52-1.11-1.22-2.14-2.1-3.07
			c-0.88-0.93-1.91-1.69-3.08-2.27c-1.18-0.58-2.4-0.87-3.69-0.87c-0.3,0-0.58,0.02-0.86,0.07c-0.35-0.04-0.7-0.07-1.06-0.07
			c-1.22,0-2.27,0.39-3.15,1.18c-0.76,0.68-1.38,1.67-1.87,2.98c-0.04,0.12-0.11,0.23-0.21,0.32l-1.62-0.31
			c-0.5-0.1-0.8-0.6-0.66-1.08c1.29-4.48,4.09-6.87,8.4-7.18c1.51,0.11,3,0.49,4.45,1.16c1.74,0.8,3.28,1.83,4.62,3.09
			c1.34,1.26,2.43,2.68,3.25,4.25c0.83,1.58,1.24,3.14,1.24,4.69c0,0.35-0.03,0.71-0.1,1.08c-0.05,0.23-0.1,0.47-0.14,0.71
			c-0.06,0.25,0,0.52,0.16,0.72l4.04,5.08c0.49,0.62,1.48,0.29,1.52-0.49l0.39,0.49c0.5,0.63,1.52,0.28,1.52-0.54V85.74
			c0-0.47-0.38-0.86-0.86-0.86H9.73c-0.47,0-0.86-0.38-0.86-0.86V81.6c0-0.47,0.38-0.86,0.86-0.86H68.9c0.15,0,0.3,0.04,0.43,0.11
			c0.38,0.22,0.73,0.43,1.07,0.65c0.39,0.25,0.8,0.55,1.22,0.89c0.42,0.34,0.86,0.74,1.34,1.19c0.03,0.03,0.07,0.06,0.1,0.1
			c0.51,0.5,1.33,0.21,1.45-0.44c0.12,0.11,0.24,0.23,0.37,0.35c0.03,0.03,0.07,0.06,0.1,0.1c0.54,0.54,1.46,0.16,1.46-0.61v-7.66
			c0-0.47,0.38-0.86,0.86-0.86h1.19c0.47,0,0.86,0.38,0.86,0.86v4.47c0,0.47,0.38,0.86,0.86,0.86h19.79c-0.06,0.54,0,1.11,0.19,1.68
			c0.48,1.48,1.68,2.45,3.28,2.69c-0.39,0.38-0.36,1.13,0.26,1.4c0.01,0.01,0.02,0.01,0.04,0.02c1.29,0.57,2.41,1.26,3.38,2.04
			c0.97,0.79,1.81,1.71,2.5,2.77c0.64,0.97,1.22,2.1,1.75,3.4c0.1,0.23,0.29,0.42,0.54,0.5c1.69,0.54,3.28,1.41,4.77,2.63
			c1.04,0.85,2.03,1.84,2.96,2.98c0.5,0.6,1.46,0.29,1.52-0.46c0.13,0.15,0.26,0.31,0.39,0.46c0.52,0.62,1.52,0.27,1.52-0.54V85.74
			c0-0.47-0.38-0.86-0.86-0.86h-3.48c0.19-0.06,0.38-0.13,0.56-0.22c0.05-0.02,0.1-0.04,0.14-0.06c0.65-0.3,1.27-0.47,1.88-0.51
			c0.04,0,0.07,0,0.11,0c0.2,0.01,0.4,0.04,0.6,0.08c0.44,0.09,0.89,0.24,1.32,0.45c0.7,0.34,1.33,0.52,1.89,0.52
			c0.16,0,0.32,0,0.48,0C125.88,85.14,126.04,85.15,126.2,85.15z"/>
		<path style="fill:#270104;" d="M164.4,118.08c0-1.34,0.49-2.43,1.45-3.27c0.75-0.65,1.68-1.05,2.81-1.19
			c-0.3-0.04-0.62-0.06-0.95-0.06c-1.56,0-2.82,0.42-3.77,1.25c-0.96,0.84-1.45,1.93-1.45,3.27c0,1.34,0.49,2.44,1.45,3.28
			c0.95,0.85,2.21,1.27,3.77,1.27c0.33,0,0.65-0.02,0.95-0.06c-1.13-0.14-2.06-0.54-2.81-1.21
			C164.89,120.52,164.4,119.42,164.4,118.08z"/>
		<path style="fill:#FFFFFF;" d="M172.96,118.08c0,1.34-0.49,2.43-1.48,3.28c-0.77,0.66-1.71,1.07-2.82,1.2
			c-1.12-0.14-2.06-0.54-2.81-1.2c-0.96-0.85-1.44-1.94-1.44-3.28c0-1.34,0.48-2.43,1.44-3.27c0.75-0.65,1.69-1.05,2.81-1.19
			c1.11,0.14,2.05,0.54,2.82,1.19C172.47,115.65,172.96,116.74,172.96,118.08z"/>
	</g>
	
		<rect x="134.53" y="74.67" transform="matrix(-1.836970e-16 1 -1 -1.836970e-16 267.0288 -7.294)" style="fill:#270104;" width="5.26" height="110.39"/>
	
		<rect x="134.53" y="81.84" transform="matrix(-1.836970e-16 1 -1 -1.836970e-16 274.1968 -0.1259)" style="fill:#270104;" width="5.26" height="110.39"/>
	
		<rect x="134.53" y="89.01" transform="matrix(-1.836970e-16 1 -1 -1.836970e-16 281.3649 7.0421)" style="fill:#270104;" width="5.26" height="110.39"/>
	
		<rect x="134.53" y="96.18" transform="matrix(-1.836970e-16 1 -1 -1.836970e-16 288.533 14.2102)" style="fill:#270104;" width="5.26" height="110.39"/>
</g>
</svg>
